<svg width="46" height="572" viewBox="0 0 46 572" fill="none" xmlns="http://www.w3.org/2000/svg">
<path d="M-14.4427 569.955C-52.0064 520.318 -89.4903 470.653 -127.203 421.128C-130.239 417.11 -129.369 414.683 -126.763 411.111C-108.019 385.531 -90.0932 359.398 -73.6462 332.28C-46.3773 287.334 -21.9099 241.065 -8.77518 189.732C-1.16922 160.008 2.2971 129.971 -6.3172 99.7088C-15.882 63.4189 -40.277 40.1354 -72.9876 24.5697C-85.5809 18.5871 -98.5022 13.1861 -112.145 9.83311C-132.358 2.99414 -153.29 1.74065 -174.387 1.68106C-175.963 1.66978 -177.693 1.94135 -179.173 0.954823C-159.699 -0.163478 -140.28 -0.20546 -121.012 3.43976C-54.6722 12.0697 -7.81851 47.1083 19.207 108.146C39.6011 154.223 45.1362 203.242 45.1296 253.007C45.153 345.564 27.1949 435.34 2.22837 523.965C-2.23128 539.791 -7.31473 555.453 -12.1997 571.467C-13.5826 570.608 -14.1639 570.412 -14.4691 570.008L-14.4427 569.955Z" fill="black" style="fill:black;fill-opacity:1;"/>
</svg>
