<svg width="314" height="311" viewBox="0 0 314 311" fill="none" xmlns="http://www.w3.org/2000/svg">
<path d="M565.442 0.266187C503.193 0.212945 440.971 0.23959 378.722 0C373.686 0 372.274 2.1563 370.995 6.38906C361.881 36.7638 351.835 66.8191 340.11 96.2887C320.684 145.138 298.513 192.551 265.47 233.973C246.337 257.959 224.46 278.83 195.121 290.197C160.399 304.439 127.116 299.009 94.9794 282.291C82.615 275.848 70.517 268.794 59.6181 259.929C41.9775 247.923 28.3606 231.977 15.5964 215.179C14.6371 213.928 13.811 212.383 12.1322 211.798C22.9778 228.01 34.6494 243.53 49.1723 256.708C96.0453 304.439 152.245 320.705 217.238 305.478C266.296 293.977 308.746 268.847 348.451 238.845C422.318 183.074 483.128 114.631 538.794 41.2894C548.734 28.1918 558.167 14.6949 568 1.14469C566.481 0.559025 565.975 0.212974 565.468 0.212974L565.442 0.266187Z" fill="black" style="fill:black;fill-opacity:1;"/>
<path d="M195.336 290.305C160.643 304.544 127.387 299.115 95.2761 282.4C82.9216 275.96 70.8335 268.907 59.9435 260.044C42.3171 248.04 28.7113 232.098 15.9574 215.304C14.9989 214.053 14.1735 212.509 12.4961 211.924C8.23592 205.403 2.72435 199.575 0.514404 191.963C2.13858 189.621 4.24207 190.525 5.99938 190.525C41.9177 190.472 77.8361 190.605 113.754 190.366C119.319 190.339 122.674 192.069 126.002 196.594C148.927 227.973 172.198 259.112 195.336 290.305Z" fill="#FFB115" style="fill:#FFB115;fill:color(display-p3 1.0000 0.6941 0.0824);fill-opacity:1;"/>
</svg>
