<svg width="142" height="143" viewBox="0 0 142 143" fill="none" xmlns="http://www.w3.org/2000/svg">
<g clip-path="url(#clip0_1_43)">
<path d="M136.054 89.3328C136.529 89.2865 136.969 89.183 137.373 89.0222C137.776 88.8615 138.139 88.6463 138.461 88.3739C138.782 88.1014 139.051 87.7745 139.274 87.3877C139.494 87.0009 139.659 86.5623 139.763 86.0664C139.942 85.2274 139.887 84.4265 139.596 83.661C139.304 82.8955 138.782 82.2307 138.027 81.6641C137.271 81.0975 136.29 80.6861 135.078 80.4328C133.861 80.1767 132.792 80.1549 131.866 80.3728C130.94 80.588 130.19 80.9912 129.607 81.5824C129.024 82.1735 128.642 82.9063 128.456 83.7781C128.282 84.5872 128.296 85.3282 128.5 86.0011C128.703 86.674 129.074 87.2406 129.61 87.701C130.146 88.1614 130.83 88.4774 131.654 88.6517L131.421 89.2102L132.333 84.9522L134.201 85.3445L132.948 91.1934L131.242 90.8338C129.981 90.5696 128.945 90.0738 128.131 89.3491C127.318 88.6245 126.76 87.7418 126.458 86.7039C126.153 85.666 126.131 84.5463 126.389 83.3449C126.678 81.9992 127.244 80.8822 128.087 79.9996C128.931 79.117 129.989 78.5122 131.258 78.188C132.531 77.8638 133.957 77.8693 135.542 78.2016C136.741 78.4522 137.779 78.8445 138.661 79.3758C139.543 79.907 140.255 80.539 140.794 81.28C141.332 82.021 141.692 82.8301 141.874 83.7182C142.055 84.6035 142.041 85.5298 141.835 86.4942C141.662 87.2978 141.382 88.0224 140.994 88.6681C140.607 89.3137 140.134 89.8613 139.576 90.3135C139.019 90.7657 138.4 91.109 137.722 91.3406C137.043 91.5721 136.32 91.6729 135.562 91.6457L136.054 89.341V89.3328Z" fill="white" style="fill:white;fill-opacity:1;"/>
<path d="M123.306 94.0457L136.801 101.289L132.22 109.677L130.467 108.737L133.946 102.368L129.835 100.162L126.595 106.092L124.848 105.155L128.087 99.2245L123.957 97.0069L120.435 103.455L118.681 102.515L123.306 94.0484V94.0457Z" fill="white" style="fill:white;fill-opacity:1;"/>
<path d="M125.892 115.178L127.332 116.545L119.118 125.05L117.678 123.683L120.99 120.255L111.344 111.099L112.941 109.446L122.586 118.602L125.892 115.178Z" fill="white" style="fill:white;fill-opacity:1;"/>
<path d="M94.0328 134.996C94.3763 135.617 94.8901 135.996 95.5743 136.138C96.2586 136.279 97.0087 136.184 97.8221 135.854C98.4047 135.617 98.869 135.323 99.2208 134.969C99.5698 134.615 99.7978 134.233 99.9023 133.825C100.007 133.416 99.9737 133.013 99.8088 132.613C99.6714 132.277 99.4708 132.021 99.2125 131.844C98.9515 131.667 98.6575 131.55 98.3305 131.493C98.0007 131.436 97.6655 131.417 97.3192 131.43C96.9758 131.444 96.6488 131.474 96.3437 131.517L94.8104 131.724C94.313 131.798 93.7855 131.839 93.2331 131.844C92.6808 131.85 92.1367 131.782 91.6009 131.64C91.0678 131.498 90.5814 131.253 90.1418 130.902C89.7021 130.55 89.3504 130.06 89.0893 129.428C88.7596 128.63 88.6716 127.84 88.831 127.052C88.9876 126.265 89.3861 125.535 90.0208 124.857C90.6556 124.181 91.5294 123.617 92.6368 123.165C93.7003 122.732 94.6895 122.525 95.6046 122.544C96.5196 122.563 97.3247 122.789 98.0172 123.228C98.7124 123.666 99.2565 124.298 99.6549 125.126L97.5061 126.001C97.2533 125.51 96.9126 125.154 96.4784 124.938C96.0442 124.72 95.5661 124.625 95.0385 124.65C94.5109 124.674 93.9723 124.799 93.4227 125.023C92.8182 125.268 92.3181 125.584 91.9224 125.965C91.5267 126.35 91.2656 126.766 91.1337 127.219C91.0018 127.671 91.0321 128.126 91.2217 128.583C91.3948 129 91.6558 129.292 92.0021 129.461C92.3511 129.63 92.7632 129.719 93.2386 129.728C93.714 129.738 94.2361 129.706 94.7994 129.632L96.6652 129.403C97.9293 129.248 99.0147 129.333 99.927 129.659C100.839 129.986 101.496 130.637 101.9 131.618C102.235 132.43 102.307 133.228 102.114 134.013C101.922 134.797 101.515 135.514 100.897 136.159C100.279 136.805 99.4928 137.32 98.542 137.71C97.5803 138.102 96.6625 138.279 95.7859 138.244C94.9093 138.208 94.1399 137.987 93.4722 137.576C92.8045 137.165 92.3071 136.584 91.9746 135.838L94.041 134.999L94.0328 134.996Z" fill="white" style="fill:white;fill-opacity:1;"/>
<path d="M85.0912 139.706L85.3165 141.671L73.5171 143L73.2917 141.036L78.0483 140.499L76.5398 127.347L78.8315 127.088L80.3401 140.24L85.0912 139.706Z" fill="white" style="fill:white;fill-opacity:1;"/>
<path d="M67.6255 127.644L70.0602 127.984L62.4485 142.284L59.7996 141.913L56.4746 126.083L58.9092 126.423L61.451 139.352L61.5692 139.369L67.6255 127.644ZM66.378 133.484L58.4833 132.381L58.7554 130.469L66.65 131.572L66.378 133.484Z" fill="white" style="fill:white;fill-opacity:1;"/>
<path d="M52.5149 124.682L46.1673 138.535L41.1881 136.293C40.1054 135.805 39.2921 135.217 38.7452 134.522C38.1984 133.828 37.8961 133.078 37.8412 132.267C37.7862 131.455 37.9511 130.624 38.3413 129.771C38.7287 128.924 39.2508 128.259 39.9021 127.777C40.5533 127.295 41.32 127.036 42.1993 127.003C43.0786 126.971 44.0596 127.197 45.1423 127.684L48.9152 129.384L48.0908 131.182L44.5103 129.57C43.8288 129.262 43.227 129.109 42.7104 129.109C42.1911 129.109 41.7487 129.251 41.3777 129.529C41.0095 129.809 40.7045 130.207 40.4681 130.725C40.2291 131.248 40.1219 131.746 40.1494 132.22C40.1769 132.694 40.3582 133.13 40.6935 133.531C41.0287 133.928 41.5453 134.285 42.2405 134.599L44.8868 135.792L50.4128 123.732L52.5204 124.68L52.5149 124.682ZM42.7544 127.826L42.1663 120.021L44.568 121.103L45.0874 128.875L42.7544 127.823V127.826Z" fill="white" style="fill:white;fill-opacity:1;"/>
<path d="M30.6142 128.24L29.3282 129.749L20.2547 122.152L21.5407 120.642L25.1982 123.707L33.8155 113.595L35.5797 115.071L26.9623 125.184L30.6142 128.243V128.24Z" fill="white" style="fill:white;fill-opacity:1;"/>
<path d="M27.1601 106.999L14.5088 115.611L9.0625 107.749L10.7057 106.629L14.8413 112.6L18.6966 109.977L14.8441 104.417L16.4818 103.303L20.3343 108.863L24.2061 106.226L20.0183 100.181L21.6616 99.061L27.1601 106.997V106.999Z" fill="white" style="fill:white;fill-opacity:1;"/>
<path d="M17.7678 90.0084L19.3286 94.6832L4.75932 99.4615L3.14906 94.6369C2.67642 93.223 2.56101 91.9099 2.80282 90.7058C3.04464 89.499 3.6162 88.4474 4.52025 87.5484C5.42156 86.6494 6.63063 85.952 8.14197 85.4562C9.65881 84.9577 11.0547 84.8051 12.3298 84.9931C13.602 85.1838 14.7067 85.6987 15.6382 86.5405C16.5698 87.3823 17.2787 88.5373 17.7678 90.003V90.0084ZM16.6797 93.1358L15.8883 90.7603C15.5201 89.6597 15.0062 88.8152 14.344 88.224C13.6817 87.6329 12.8903 87.2869 11.9698 87.1861C11.0492 87.0853 10.0133 87.2243 8.86192 87.6029C7.7188 87.9789 6.80925 88.4747 6.13326 89.0985C5.45728 89.7196 5.03136 90.4525 4.8555 91.297C4.67963 92.1415 4.76756 93.0922 5.11929 94.1438L5.9574 96.6528L16.6852 93.1331L16.6797 93.1358Z" fill="white" style="fill:white;fill-opacity:1;"/>
<path d="M5.52338 55.3267C5.05003 55.3867 4.61453 55.5017 4.2141 55.6742C3.81368 55.8467 3.45663 56.0715 3.14292 56.3513C2.82921 56.6311 2.56707 56.9687 2.35925 57.3613C2.14869 57.754 1.998 58.1991 1.90716 58.6966C1.75195 59.5394 1.83082 60.3386 2.14103 61.094C2.45398 61.8495 2.9962 62.5013 3.76497 63.0468C4.53649 63.5922 5.5297 63.974 6.74734 64.1949C7.97044 64.4185 9.0423 64.4089 9.96016 64.166C10.878 63.9257 11.6193 63.501 12.184 62.8944C12.7488 62.2878 13.1117 61.5454 13.2728 60.6673C13.4222 59.8544 13.3866 59.113 13.1634 58.4457C12.9401 57.7784 12.5562 57.2237 12.0033 56.7788C11.4533 56.3339 10.7641 56.0373 9.93318 55.8862L10.1512 55.322L9.36063 59.604L7.48206 59.2639L8.56833 53.3806L10.2851 53.6916C11.5521 53.9212 12.6021 54.3881 13.435 55.0896C14.268 55.791 14.8517 56.6586 15.1836 57.6867C15.5154 58.7176 15.5714 59.8352 15.3488 61.0423C15.0999 62.3962 14.5649 63.5262 13.7467 64.4323C12.9285 65.3385 11.8908 65.9724 10.6281 66.3313C9.36543 66.6902 7.93877 66.7258 6.34541 66.438C5.14148 66.22 4.09034 65.8566 3.19469 65.3533C2.29631 64.8473 1.56953 64.2342 1.00888 63.5113C0.448232 62.7884 0.0671114 61.9859 -0.140007 61.1063C-0.347126 60.2267 -0.3586 59.3002 -0.179988 58.3324C-0.0306758 57.5249 0.22771 56.7923 0.597888 56.1372C0.968065 55.4821 1.42512 54.9206 1.96905 54.4527C2.51298 53.9848 3.12162 53.6267 3.795 53.3755C4.46837 53.1243 5.18423 53.0044 5.94538 53.0103L5.51788 55.3266L5.52338 55.3267Z" fill="white" style="fill:white;fill-opacity:1;"/>
<path d="M18.1285 50.2661L4.43305 43.3978L8.77537 34.887L10.5542 35.779L7.25744 42.242L11.43 44.3354L14.4992 38.3166L16.2726 39.2058L13.2007 45.2246L17.3923 47.3291L20.7312 40.7875L22.5101 41.6795L18.1284 50.2689L18.1285 50.2661Z" fill="white" style="fill:white;fill-opacity:1;"/>
<path d="M14.9543 29.2114L13.4771 27.8842L21.452 19.1613L22.9292 20.4885L19.7153 24.0046L29.6092 32.8949L28.0592 34.5909L18.1654 25.6979L14.9543 29.2086L14.9543 29.2114Z" fill="white" style="fill:white;fill-opacity:1;"/>
<path d="M46.2421 8.53134C45.8808 7.9197 45.3573 7.55414 44.6662 7.43187C43.9778 7.30963 43.2318 7.42376 42.428 7.77971C41.8536 8.03201 41.3939 8.3401 41.0545 8.70404C40.7151 9.06798 40.4991 9.45512 40.4065 9.86545C40.3139 10.2785 40.3561 10.6795 40.533 11.0738C40.6803 11.4051 40.8864 11.6554 41.1537 11.8246C41.4211 11.9938 41.7167 12.1034 42.0459 12.1508C42.3752 12.1981 42.713 12.2101 43.0568 12.184C43.4006 12.1607 43.7253 12.1208 44.031 12.0698L45.559 11.8201C46.0546 11.7331 46.5801 11.6764 47.1327 11.6554C47.6853 11.6345 48.2316 11.687 48.7688 11.8129C49.306 11.9389 49.8008 12.1707 50.2503 12.5109C50.6999 12.8483 51.0654 13.332 51.3441 13.9563C51.6979 14.7449 51.8044 15.5335 51.6718 16.3248C51.5364 17.1161 51.1625 17.8583 50.5473 18.5515C49.9321 19.2447 49.0763 19.8343 47.9798 20.315C46.9303 20.7771 45.9466 21.0112 45.0314 21.0199C44.1162 21.0258 43.3051 20.8205 42.5981 20.4038C41.8911 19.9844 41.3292 19.3677 40.9071 18.5511L43.0309 17.6162C43.2975 18.1014 43.6481 18.4459 44.0882 18.6498C44.5283 18.8564 45.011 18.9382 45.5364 18.8978C46.0617 18.8575 46.5964 18.7192 47.1405 18.4801C47.7398 18.2172 48.23 17.8877 48.6136 17.4943C48.9973 17.1009 49.2495 16.676 49.3673 16.2196C49.4852 15.7633 49.4436 15.3106 49.2399 14.856C49.055 14.4452 48.7861 14.1588 48.4334 13.9996C48.0808 13.8403 47.6667 13.762 47.1885 13.7675C46.713 13.7703 46.1931 13.8188 45.6315 13.9078L43.7733 14.1891C42.5153 14.3792 41.4249 14.3259 40.5077 14.024C39.5878 13.7248 38.9134 13.0905 38.4793 12.1212C38.1201 11.3189 38.0275 10.525 38.1958 9.73411C38.3669 8.94325 38.7516 8.21748 39.3527 7.5541C39.9511 6.89341 40.7212 6.35455 41.6629 5.94023C42.613 5.52328 43.5249 5.31841 44.4015 5.32835C45.278 5.3383 46.0561 5.54057 46.7332 5.93239C47.4131 6.32425 47.9288 6.89132 48.2804 7.62818L46.2394 8.52586L46.2421 8.53134Z" fill="white" style="fill:white;fill-opacity:1;"/>
<path d="M55.0455 3.56931L54.7654 1.61273L66.5238 -0.0355733L66.8039 1.921L62.0642 2.58645L63.9353 15.693L61.6508 16.013L59.7769 2.90649L55.0427 3.56928L55.0455 3.56931Z" fill="white" style="fill:white;fill-opacity:1;"/>
<path d="M72.8478 15.162L70.4051 14.8891L77.6102 0.387191L80.2697 0.684365L84.0402 16.417L81.5975 16.144L78.693 3.29007L78.575 3.27783L72.8505 15.1675L72.8478 15.162ZM73.9312 9.28963L81.8549 10.1751L81.638 12.0933L73.7143 11.2079L73.9312 9.28963Z" fill="white" style="fill:white;fill-opacity:1;"/>
<path d="M88.0351 17.6992L93.9843 3.67609L99.0252 5.77932C100.122 6.23584 100.951 6.80375 101.518 7.48039C102.084 8.15702 102.406 8.89898 102.487 9.70905C102.566 10.5191 102.422 11.3538 102.057 12.2161C101.693 13.0756 101.194 13.7537 100.556 14.2532C99.9182 14.7527 99.1593 15.0329 98.282 15.0883C97.4047 15.1465 96.4177 14.9473 95.3209 14.4908L91.5026 12.8973L92.2763 11.0752L95.9031 12.5876C96.5951 12.876 97.1981 13.0137 97.7176 12.9978C98.2372 12.9846 98.6758 12.8315 99.0364 12.5414C99.3969 12.2513 99.6901 11.8432 99.9131 11.3199C100.136 10.7912 100.23 10.2882 100.189 9.81646C100.147 9.34467 99.9542 8.91202 99.6069 8.52122C99.2595 8.13314 98.733 7.78933 98.0301 7.49802L95.3497 6.38056L90.1712 18.587L88.0378 17.6965L88.0351 17.6992ZM97.7003 14.2862L98.5106 22.0708L96.079 21.057L95.3371 13.3004L97.7003 14.2862Z" fill="white" style="fill:white;fill-opacity:1;"/>
<path d="M109.83 13.5439L111.074 11.9996L120.353 19.3491L119.11 20.8934L115.367 17.9303L107.033 28.2729L105.23 26.8439L113.564 16.5014L109.83 13.5439Z" fill="white" style="fill:white;fill-opacity:1;"/>
<path d="M113.867 34.6793L126.269 25.7232L131.933 33.4349L130.323 34.599L126.02 28.7445L122.241 31.4723L126.246 36.9257L124.642 38.0844L120.636 32.6311L116.838 35.3723L121.192 41.2982L119.582 42.4623L113.864 34.6792L113.867 34.6793Z" fill="white" style="fill:white;fill-opacity:1;"/>
<path d="M123.746 51.4129L122.05 46.7813L136.476 41.597L138.225 46.3736C138.736 47.7743 138.889 49.0811 138.683 50.2938C138.474 51.5065 137.935 52.5738 137.058 53.4983C136.182 54.4201 134.995 55.1531 133.497 55.6919C131.993 56.2333 130.603 56.4246 129.324 56.2712C128.045 56.1177 126.93 55.631 125.974 54.8165C125.019 53.9992 124.276 52.8656 123.746 51.4129ZM124.741 48.2585L125.602 50.6112C126.001 51.7001 126.539 52.5317 127.219 53.1033C127.9 53.675 128.699 53.9974 129.624 54.0733C130.546 54.1464 131.579 53.9783 132.718 53.569C133.85 53.1622 134.746 52.6384 135.405 52.0002C136.063 51.3593 136.467 50.6147 136.62 49.7664C136.772 48.9181 136.657 47.9714 136.276 46.9264L135.367 44.4396L124.743 48.2585L124.741 48.2585Z" fill="white" style="fill:white;fill-opacity:1;"/>
<path d="M10.5648 78.3653L7.67457 77.6547L8.73211 80.4572L7.49065 80.869L6.66957 77.9601L4.78438 80.3045L3.82537 79.4478L5.89448 77.2761L2.95831 76.7847L3.22106 75.4963L6.11124 76.2069L5.0537 73.3911L6.30173 72.9793L7.10967 75.8815L8.99486 73.5372L9.98015 74.4138L7.91104 76.5788L10.8472 77.0769L10.5648 78.3653Z" fill="white" style="fill:white;fill-opacity:1;"/>
<path d="M137.773 68.5032L134.883 67.7926L135.94 70.5952L134.699 71.0069L133.878 68.0981L131.993 70.4424L131.034 69.5857L133.103 67.4141L130.167 66.9226L130.429 65.6342L133.32 66.3448L132.262 63.529L133.51 63.1172L134.318 66.0194L136.203 63.6751L137.189 64.5517L135.119 66.7167L138.056 67.2148L137.773 68.5032Z" fill="white" style="fill:white;fill-opacity:1;"/>
</g>
<path d="M94.8485 72.8485C95.3172 72.3799 95.3172 71.6201 94.8485 71.1515L87.2118 63.5147C86.7431 63.0461 85.9833 63.0461 85.5147 63.5147C85.0461 63.9833 85.0461 64.7431 85.5147 65.2118L92.3029 72L85.5147 78.7882C85.0461 79.2569 85.0461 80.0166 85.5147 80.4853C85.9833 80.9539 86.7431 80.9539 87.2118 80.4853L94.8485 72.8485ZM48 73.2L94 73.2L94 70.8L48 70.8L48 73.2Z" fill="#FFB115" style="fill:#FFB115;fill:color(display-p3 1.0000 0.6941 0.0824);fill-opacity:1;"/>
<defs>
<clipPath id="clip0_1_43">
<rect width="142" height="143" fill="white" style="fill:white;fill-opacity:1;"/>
</clipPath>
</defs>
</svg>
