<svg width="141" height="78" viewBox="0 0 141 78" fill="none" xmlns="http://www.w3.org/2000/svg">
<path d="M6.35853 15.8931C6.76876 16.9253 6.74892 18.3875 6.74892 19.5124H7.36426C7.36426 18.3677 7.33779 16.9253 7.75464 15.8931L9.90504 10.355H13.9346L8.89932 21.8017H5.3065L0.178619 10.355H4.20813L6.35853 15.8931Z" fill="white" style="fill:white;fill-opacity:1;"/>
<path d="M14.2125 5.77632H18.0369V9.32282H14.2125V5.77632ZM14.3448 10.355H17.9178V21.8018H14.3448V10.355Z" fill="white" style="fill:white;fill-opacity:1;"/>
<path d="M24.4616 22.1657C19.6117 22.1657 18.5795 19.2146 18.5795 17.448H22.1921C22.1921 17.8119 22.695 18.7978 24.9645 18.7978C26.612 18.7978 26.751 18.0898 26.751 17.9509C26.751 16.4621 18.6059 17.2429 18.6059 13.4648C18.6059 11.6783 20.1608 10.0109 24.3028 10.0109C29.3844 10.0109 30.2313 12.6642 30.2049 13.9478H26.5856C26.5856 13.3986 25.8313 12.8031 24.0249 12.8031C23.1582 12.8031 22.1921 12.8958 22.1921 13.3986C22.1921 14.497 30.41 13.1671 30.41 17.7457C30.41 19.8035 28.6235 22.1657 24.4616 22.1657Z" fill="white" style="fill:white;fill-opacity:1;"/>
<path d="M32.6331 13.3722H30.3438V10.3285H32.6331V5.49839H36.2259V10.3285H39.2034V13.3722H36.2259V17.2429C36.2259 18.1824 36.6627 18.4537 37.7345 18.4537H39.0843V21.7951H35.6768C33.136 21.7951 32.6331 19.1617 32.6331 17.2429V13.3722Z" fill="white" style="fill:white;fill-opacity:1;"/>
<path d="M45.0327 22.1657C41.6913 22.1657 39.3093 19.4198 39.3093 16.0056C39.3093 12.5914 41.6913 10.0109 45.0327 10.0109C46.5413 10.0109 47.6859 10.5403 48.513 11.4335C48.9696 11.9364 48.996 12.8958 49.2011 13.5641L49.8165 13.3589C49.6114 12.7171 49.1747 11.9165 49.1747 11.2085L49.1945 10.3616H52.7874V21.8084H49.1945L49.1747 20.8688C49.1747 20.1807 49.6114 19.3801 49.79 18.7184L49.1945 18.5331C48.9894 19.1948 48.963 20.1343 48.5064 20.6637C47.7058 21.6032 46.5611 22.1723 45.0261 22.1723L45.0327 22.1657ZM45.3304 18.8176C46.6339 18.8176 47.805 17.5605 47.805 16.0056C47.805 14.4507 46.9581 13.3523 45.3304 13.3523C44.027 13.3523 42.9021 14.4705 42.9021 16.0056C42.9021 17.5406 44.0203 18.8176 45.3304 18.8176Z" fill="white" style="fill:white;fill-opacity:1;"/>
<path d="M63.7114 10.0109V13.3523C60.7141 13.3523 57.4653 14.4705 57.4653 17.6333V21.8017H53.8725V10.355H57.4653C57.4388 11.4533 56.8698 12.737 56.3868 13.7162L56.9558 13.9941C57.4388 12.9884 57.9417 11.5658 58.8813 10.9703C60.2311 10.1697 61.6933 10.0109 63.7114 10.0109Z" fill="white" style="fill:white;fill-opacity:1;"/>
<path d="M15.2843 29.4108C17.7325 29.4108 19.6314 30.7408 19.6314 33.3477V41.195H16.0188V35.4055C16.0188 33.2286 15.4233 32.2493 14.186 32.2493C12.8362 32.2493 12.2605 33.2352 12.2605 35.4055V41.195H8.64785V35.4055C8.64785 33.2286 8.05236 32.2493 6.7952 32.2493C5.44541 32.2493 4.6448 33.2352 4.6448 35.4055V41.195H1.03214V29.7483H4.6448V29.8872C4.6448 30.8929 4.14194 32.1104 3.8442 33.0698L4.43969 33.2551C4.73743 32.2957 4.84992 30.8996 5.56451 30.185C6.17985 29.5895 6.9143 29.4042 8.01265 29.4042C8.97206 29.4042 9.79914 29.5895 10.3946 30.0923C11.1489 30.7341 10.7387 32.1766 10.5799 33.1624L11.1953 33.2749C11.3805 32.2692 11.5856 31.0319 12.4061 30.4364C13.1405 29.8872 14.0999 29.4042 15.2909 29.4042L15.2843 29.4108Z" fill="#FFB115" style="fill:#FFB115;fill:color(display-p3 1.0000 0.6941 0.0824);fill-opacity:1;"/>
<path d="M20.1807 35.4055C20.1807 31.9979 23.1581 29.4108 27.3663 29.4108C31.5745 29.4108 34.3667 32.2494 34.3468 35.4518V36.4575L24.6866 36.4311C24.6866 37.4368 25.646 38.5814 27.6177 38.5814C28.8749 38.5814 29.6557 38.2374 29.8806 37.9198H34.0888C33.7447 39.1108 31.8921 41.5589 27.9552 41.5589C22.9199 41.5589 20.174 38.813 20.174 35.3989L20.1807 35.4055ZM30.046 34.3336C30.046 33.0036 29.0602 32.0906 27.4589 32.0906C25.8577 32.0906 24.6866 33.1227 24.6866 34.3336H30.0394H30.046Z" fill="#FFB115" style="fill:#FFB115;fill:color(display-p3 1.0000 0.6941 0.0824);fill-opacity:1;"/>
<path d="M44.3974 24.6006L48.0167 24.5807V41.1752L44.3974 41.195V40.368C44.3974 39.6798 44.854 38.9057 45.0591 38.2374L44.4636 38.0521C44.232 38.694 44.1857 39.6534 43.7292 40.1562C42.8822 41.023 41.7177 41.5523 40.1827 41.5523C36.7751 41.5523 34.3203 38.8726 34.4394 35.4849C34.5784 32.256 36.9604 29.3976 40.1827 29.3976C41.6913 29.3976 42.8624 30.0394 43.6829 30.8864C44.1659 31.3694 44.2519 32.3089 44.4835 32.9706L45.079 32.7655C44.8474 32.1038 44.3908 31.3231 44.3908 30.6349V24.594L44.3974 24.6006ZM43.5505 35.5643C43.5505 34.0292 42.5183 32.7522 40.8245 32.7522C39.1306 32.7522 38.0521 34.0359 38.0521 35.5643C38.0521 37.0927 39.124 38.2176 40.8245 38.2176C42.525 38.2176 43.5505 37.0927 43.5505 35.5643Z" fill="#FFB115" style="fill:#FFB115;fill:color(display-p3 1.0000 0.6941 0.0824);fill-opacity:1;"/>
<path d="M49.1283 25.1762H52.9527V28.7227H49.1283V25.1762ZM49.2672 29.7549H52.8402V41.2016H49.2672V29.7549Z" fill="#FFB115" style="fill:#FFB115;fill:color(display-p3 1.0000 0.6941 0.0824);fill-opacity:1;"/>
<path d="M59.3113 41.5655C55.9699 41.5655 53.5879 38.8196 53.5879 35.4055C53.5879 31.9913 55.9699 29.4108 59.3113 29.4108C60.8199 29.4108 61.9646 29.9401 62.7916 30.8334C63.2482 31.3363 63.2746 32.2957 63.4798 32.9639L64.0951 32.7588C63.89 32.117 63.4533 31.3164 63.4533 30.6084L63.4798 29.7615H67.0726V41.2082H63.4798L63.4533 40.2687C63.4533 39.5806 63.89 38.78 64.0686 38.1183L63.4731 37.933C63.268 38.5947 63.2416 39.5342 62.785 40.0636C61.9844 41.0031 60.8397 41.5722 59.3047 41.5722L59.3113 41.5655ZM59.609 38.2241C60.9125 38.2241 62.0837 36.967 62.0837 35.4121C62.0837 33.8572 61.2367 32.7588 59.609 32.7588C58.3056 32.7588 57.1807 33.877 57.1807 35.4121C57.1807 36.9471 58.299 38.2241 59.609 38.2241Z" fill="#FFB115" style="fill:#FFB115;fill:color(display-p3 1.0000 0.6941 0.0824);fill-opacity:1;"/>
<path d="M140.365 0.0661601C124.908 0.0529269 109.459 0.0595495 94.0022 0C92.7517 0 92.401 0.535942 92.0834 1.58798C89.8205 9.13754 87.326 16.6077 84.4147 23.9323C79.5912 36.0738 74.0862 47.858 65.8816 58.1534C61.1309 64.115 55.6986 69.3024 48.4137 72.1277C39.7923 75.6676 31.5281 74.3178 23.5485 70.1626C20.4784 68.5614 17.4744 66.808 14.7682 64.6046C10.388 61.6205 7.00695 57.6572 3.83759 53.4821C3.5994 53.1711 3.39428 52.7873 2.97743 52.6418C5.67039 56.6713 8.56848 60.5288 12.1745 63.804C23.8132 75.6676 37.7676 79.7103 53.9055 75.9256C66.0867 73.0673 76.627 66.8212 86.4857 59.3643C104.827 45.5024 119.926 28.4911 133.748 10.2624C136.216 7.00699 138.558 3.65237 141 0.28451C140.623 0.138944 140.497 0.0529341 140.371 0.0529341L140.365 0.0661601Z" fill="white" style="fill:white;fill-opacity:1;"/>
<path d="M48.4138 72.1277C39.7923 75.6676 31.5282 74.3178 23.5485 70.1625C20.4784 68.5613 17.4745 66.8079 14.7683 64.6046C10.3881 61.6205 7.007 57.6571 3.83764 53.4821C3.59944 53.1711 3.39432 52.7873 2.97748 52.6417C1.91882 51.0207 0.549179 49.5716 0 47.6793C0.403613 47.097 0.926334 47.322 1.36303 47.322C10.2888 47.3087 19.2147 47.3418 28.1405 47.2823C29.5233 47.2757 30.357 47.7058 31.1841 48.8306C36.881 56.6316 42.6639 64.373 48.4138 72.1277Z" fill="#FFB115" style="fill:#FFB115;fill:color(display-p3 1.0000 0.6941 0.0824);fill-opacity:1;"/>
</svg>
