<svg width="98" height="98" viewBox="0 0 98 98" fill="none" xmlns="http://www.w3.org/2000/svg">
<g clip-path="url(#clip0_1_140)">
<path d="M98 11.1107C97.5549 11.809 96.9775 12.3039 96.1046 12.0027C95.2375 11.7035 95.0246 10.9572 95.1397 10.1343C95.2663 9.23462 94.9843 8.98908 94.0386 8.99099C63.995 9.02169 33.9513 9.01977 3.9058 8.99675C3.10393 8.99675 2.85262 9.13103 2.85646 10.0077C2.8929 20.7233 2.88139 31.4408 2.87948 42.1564C2.87948 42.4749 2.90825 42.801 2.8507 43.1098C2.70874 43.8733 2.18119 44.2857 1.44262 44.2838C0.704042 44.2838 0.178409 43.8695 0.040286 43.1041C-0.0153467 42.7952 0.0115105 42.4691 0.0115105 42.1487C0.0115105 30.8577 0.0115105 19.5685 0.0115105 8.27739C0.0115105 6.53366 0.406695 6.13465 2.13323 6.13273C4.20699 6.13273 6.28075 6.09245 8.35259 6.15383C9.10267 6.17685 9.31561 5.93707 9.20626 5.25223C9.17557 5.06616 9.20626 4.87049 9.20051 4.67866C9.18324 4.11085 9.35782 3.41067 9.08924 3.01166C8.82643 2.62225 8.08402 2.92918 7.55455 2.87547C6.7354 2.79298 6.15605 2.21941 6.14454 1.4636C6.13303 0.673262 6.73348 0.0306323 7.60826 0.0191225C9.64941 -0.00773363 11.6906 -0.00773363 13.7317 0.0210408C14.5681 0.0325506 15.1206 0.631059 15.1379 1.40605C15.1571 2.229 14.595 2.80641 13.7087 2.87355C12.6254 2.95539 12.0838 3.53536 12.0838 4.61344C12.0838 5.62502 12.6031 6.13081 13.6415 6.13081C24.6127 6.13081 35.5839 6.12314 46.555 6.14808C47.3185 6.14808 47.6984 6.0138 47.5372 5.18509C47.5142 5.06232 47.5372 4.92996 47.5334 4.80335C47.5238 4.19909 47.7233 3.45863 47.4452 3.02893C47.1708 2.60882 46.3785 2.93877 45.8184 2.86779C44.9954 2.76229 44.5772 2.24051 44.5043 1.46744C44.4352 0.728892 45.0625 0.0363872 45.8548 0.0229591C47.9593 -0.0115702 50.0657 -0.0134885 52.1682 0.0229591C52.9605 0.0363872 53.5763 0.738484 53.5034 1.48086C53.4266 2.25777 53.0008 2.76804 52.1797 2.86971C51.6215 2.93877 50.8292 2.6069 50.5568 3.03852C50.2805 3.47397 50.4781 4.21252 50.4781 4.8187C50.4755 5.69344 50.9021 6.13081 51.7577 6.13081C62.8247 6.13081 73.8918 6.12122 84.9589 6.15C85.7435 6.15192 86.085 5.97927 85.9315 5.17358C85.9143 5.08151 85.9296 4.98175 85.9296 4.88776C85.9258 4.28158 86.1253 3.56222 85.8663 3.09991C85.5555 2.5436 84.7671 2.96754 84.1935 2.87738C83.3897 2.75078 82.8353 2.17529 82.8794 1.39262C82.9274 0.57351 83.3954 0.047897 84.1992 0.0306323C86.3037 -0.0154068 88.4101 -0.0115702 90.5126 0.0248774C91.3164 0.0383055 91.8861 0.721219 91.867 1.47511C91.8478 2.23284 91.2684 2.79298 90.4455 2.87547C89.9179 2.92726 89.1774 2.62033 88.9146 3.01934C88.6479 3.4241 88.8168 4.12236 88.8129 4.69209C88.8072 6.13273 88.811 6.13273 90.2459 6.13273C92.1605 6.13273 94.0731 6.16534 95.9857 6.1193C96.8605 6.0982 97.5415 6.32264 98 7.08996V11.1088V11.1107Z" fill="#050708" style="fill:#050708;fill:color(display-p3 0.0196 0.0275 0.0314);fill-opacity:1;"/>
<path d="M93.1868 55.4003C94.1364 55.431 95.0918 55.4426 96.0413 55.3869C96.9027 55.3351 97.6758 55.1088 97.9981 54.1726V16.2786C97.0964 15.1833 96.1737 15.0413 95.4639 15.8758C95.0975 16.3074 95.1263 16.8138 95.1263 17.326C95.1263 28.5826 95.1167 39.8391 95.1493 51.0938C95.1512 51.9724 94.921 52.1661 94.0654 52.1661C64.2194 52.1431 34.3734 52.1469 4.52736 52.1469C3.47993 52.1469 2.92999 51.6411 2.87756 50.6295C2.83152 49.7375 2.28094 49.1314 1.48866 49.1026C0.661838 49.0738 0.0383669 49.6992 0.013428 50.6315C-0.00959241 51.5235 -5.58444e-07 52.4174 0.0095913 53.3094C0.0211015 54.5045 0.539062 55.0378 1.75723 55.08C2.42674 55.103 3.09625 55.0781 3.76576 55.0877C4.52352 55.0992 5.54985 54.8344 5.97189 55.22C6.4745 55.6804 6.05246 56.724 6.14071 57.5066C6.21169 58.1301 6.00066 58.3238 5.36377 58.3085C3.99597 58.274 2.62241 58.2893 1.25653 58.3641C0.491102 58.4063 0.0556322 58.9358 0.0249383 59.6954C-0.00575567 60.4129 0.372163 60.8809 1.06661 61.113C1.47523 61.2492 1.88576 61.2185 2.29629 61.2185C15.0189 61.2205 27.7416 61.2262 40.4642 61.2051C41.1874 61.2051 41.4157 61.349 41.4138 62.124C41.3812 70.1904 41.3965 78.2588 41.3927 86.3252C41.3927 87.1808 41.6805 88.303 41.2527 88.8209C40.8038 89.3657 39.6393 88.9379 38.7895 88.9955C38.7262 88.9993 38.6629 88.9955 38.5976 88.9955C37.343 89.0166 36.8193 89.5307 36.7963 90.8083C36.7771 91.8921 36.7368 92.9798 36.8097 94.0598C36.8673 94.9038 36.6486 95.2645 35.7469 95.1417C34.947 95.0343 34.2122 95.1897 33.8669 96.0721C33.5178 96.966 34.0875 97.4801 34.6515 97.998H63.36C63.9259 97.4801 64.4956 96.966 64.1465 96.0721C63.8012 95.1897 63.076 95.0803 62.2665 95.1264C62.1399 95.134 62.0094 95.111 61.8847 95.1302C61.3284 95.2203 61.1941 94.9729 61.2095 94.4434C61.2459 93.233 61.2363 92.0206 61.2171 90.8102C61.196 89.5307 60.6723 89.0127 59.4216 88.9936C58.848 88.9859 58.2686 88.9418 57.7027 89.0032C56.8759 89.0933 56.59 88.8708 56.5939 87.9538C56.6342 79.381 56.6303 70.8062 56.5977 62.2333C56.5939 61.4123 56.7646 61.1898 57.6221 61.1917C70.339 61.2243 83.0559 61.207 95.7728 61.2281C96.6859 61.2281 97.4437 61.044 98.0038 60.292V59.1429C97.6854 58.3564 97.0696 58.0898 96.262 58.0975C95.2471 58.1071 94.2304 58.0745 93.2175 58.1051C92.4482 58.1282 92.0876 57.827 92.1586 57.0443C92.1758 56.8563 92.1758 56.6626 92.1586 56.4746C92.0876 55.7092 92.4022 55.3697 93.1945 55.3965L93.1868 55.4003ZM41.4119 56.0104C41.3697 58.2912 41.4004 58.2931 39.1424 58.2931C29.4489 58.2931 19.7535 58.2855 10.0599 58.3085C9.28492 58.3085 8.95304 58.2164 8.98565 57.3014C9.06622 55.0858 9.00867 55.0838 11.211 55.0838H25.2745C30.3448 55.0838 35.4151 55.103 40.4853 55.0646C41.2527 55.0589 41.4253 55.2795 41.4119 56.0104ZM46.7066 55.0838C47.5046 55.0838 48.3008 55.0838 49.0988 55.0838C50.3745 55.0838 51.6502 55.1088 52.9259 55.0723C53.4804 55.057 53.6914 55.1644 53.6952 55.7917C53.7125 58.2951 53.7393 58.2951 51.255 58.2951C49.1832 58.2951 47.1094 58.2797 45.0376 58.3047C44.5062 58.3104 44.3355 58.1627 44.3201 57.6102C44.253 55.0838 44.2338 55.0838 46.7104 55.0838H46.7066ZM53.6837 88.2435C53.6837 88.7864 53.6089 89.0223 52.972 89.0127C50.3246 88.9725 47.6773 88.9725 45.0299 89.0127C44.3854 89.0223 44.3201 88.7749 44.324 88.2397C44.3412 83.8698 44.3336 79.4999 44.3336 75.13C44.3336 70.7928 44.347 66.4536 44.3182 62.1163C44.3144 61.4507 44.4045 61.1802 45.1776 61.1974C47.7598 61.2569 50.3438 61.2358 52.9279 61.207C53.488 61.2013 53.6895 61.3068 53.6875 61.9283C53.6645 70.7007 53.6684 79.4711 53.6818 88.2435H53.6837ZM57.4207 91.8557C58.142 91.8499 58.378 92.0302 58.3051 92.7477C58.2264 93.5015 58.5276 94.4876 58.1478 94.9633C57.7449 95.4697 56.7205 95.1129 55.9704 95.1206C53.6453 95.1455 51.3203 95.1302 48.9952 95.1302C46.1618 95.1302 43.3264 95.1091 40.493 95.1455C39.858 95.1532 39.6547 94.9767 39.7064 94.3533C39.7717 93.5668 39.4705 92.5386 39.8657 92.0456C40.2839 91.5219 41.3543 91.8883 42.1351 91.8844C47.2303 91.8672 52.3255 91.8921 57.4207 91.8576V91.8557ZM89.0143 56.0622C88.9626 58.2912 88.999 58.2931 86.7967 58.2931C82.1082 58.2931 77.4216 58.2931 72.7331 58.2931C67.6955 58.2931 62.6559 58.2778 57.6183 58.3104C56.8605 58.3162 56.5709 58.1896 56.592 57.3455C56.6495 55.0858 56.6054 55.0838 58.8652 55.0838C68.5914 55.0838 78.3175 55.0953 88.0437 55.0627C88.8628 55.0608 89.0335 55.2872 89.0143 56.0622Z" fill="#040608" style="fill:#040608;fill:color(display-p3 0.0157 0.0235 0.0314);fill-opacity:1;"/>
</g>
<defs>
<clipPath id="clip0_1_140">
<rect width="98" height="98" fill="white" style="fill:white;fill-opacity:1;"/>
</clipPath>
</defs>
</svg>
