<svg width="96" height="95" viewBox="0 0 96 95" fill="none" xmlns="http://www.w3.org/2000/svg">
<path d="M94.9009 18.1674C89.1827 12.5203 83.4682 6.8713 77.7781 1.19631C76.951 0.371529 76.0696 -0.00185071 74.8843 6.89591e-06C59.3275 0.0260134 43.7708 0.0167254 28.214 0.018583C24.7857 0.018583 22.4095 2.35731 22.3758 5.7716C22.3626 7.12951 22.3833 8.48928 22.3701 9.84719C22.3608 10.8652 22.2801 10.9729 21.2374 10.9413C19.0956 10.8763 17.0101 11.1772 14.9659 11.7884C4.03584 15.0485 -2.36316 25.6016 0.815713 37.3435C2.77742 44.5882 7.77547 49.2285 15.0165 51.4539C17.057 52.0818 19.1481 52.3493 21.2899 52.2899C22.2726 52.262 22.3476 52.3772 22.372 53.3431C22.3795 53.6218 22.3739 53.8985 22.3739 54.1772C22.3739 65.7575 22.3739 77.3379 22.3739 88.9182C22.3739 92.3028 23.9042 94.2477 27.145 95H91.5101C94.0626 94.5635 95.5592 93.0811 95.9999 90.551V19.9396C95.848 19.2188 95.4185 18.6801 94.9009 18.1674ZM77.2905 6.60009C78.0688 7.19267 88.7982 17.8126 89.4584 18.643H83.1794C81.4352 18.643 79.6929 18.643 77.9488 18.643C77.6262 18.643 77.2755 18.7563 77.2793 18.1841C77.2999 14.3445 77.2905 10.5029 77.2905 6.60195V6.60009ZM22.6364 15.8027C22.6308 15.1377 22.8446 15.0559 23.4279 15.1507C30.6221 16.3265 36.2784 21.9458 37.4112 29.0456C37.4993 29.5954 37.4168 29.7886 36.7866 29.7775C34.5436 29.7366 32.3006 29.7608 30.0576 29.7608C27.8464 29.7608 25.6334 29.7422 23.4223 29.7738C22.8503 29.7812 22.6308 29.6827 22.6346 29.04C22.6665 24.6282 22.6665 20.2145 22.6346 15.8027H22.6364ZM23.6773 48.0229C12.8785 50.0589 2.73054 40.6649 4.07523 29.8778C5.02983 22.2226 10.4367 16.5476 18.0604 15.1655C18.7693 15.0374 18.9437 15.1878 18.9306 15.9123C18.8818 18.5055 18.9118 21.1006 18.9118 23.6938C18.9118 26.1644 18.9118 28.6351 18.9118 31.1057C18.9118 32.8128 19.5626 33.4667 21.2655 33.4667C26.378 33.4686 31.4923 33.4834 36.6047 33.45C37.3793 33.4444 37.5199 33.6209 37.3718 34.3695C35.9427 41.5603 30.8359 46.6706 23.6773 48.0211V48.0229ZM92.2584 88.6749C92.2584 90.6643 91.632 91.2941 89.6478 91.2941C79.5129 91.2941 69.378 91.2941 59.2432 91.2941C49.1083 91.2941 39.0972 91.2941 29.0242 91.2941C27.0287 91.2941 26.3967 90.6681 26.3967 88.6934C26.3967 76.4926 26.4005 64.29 26.3836 52.0892C26.3836 51.4781 26.5242 51.2143 27.1544 50.9877C35.2038 48.0787 39.9955 42.4557 41.1864 34.0165C42.5086 24.6468 36.5203 15.2807 27.4226 12.3531C26.5955 12.0875 26.3329 11.7234 26.3742 10.8726C26.453 9.26948 26.3836 7.66079 26.4005 6.05581C26.4155 4.56601 27.1469 3.82111 28.6416 3.82111C43.3919 3.81368 58.1423 3.82111 72.8926 3.79882C73.5528 3.79882 73.5565 4.07374 73.5546 4.56044C73.5434 9.68744 73.5471 14.8163 73.5471 19.9433C73.5471 21.721 74.1754 22.3489 75.9514 22.3489C81.0658 22.3489 86.1801 22.3749 91.2944 22.3248C92.1627 22.3155 92.2753 22.5811 92.2753 23.3446C92.2546 45.1213 92.2584 66.8981 92.2584 88.6749Z" fill="#030608" style="fill:#030608;fill:color(display-p3 0.0118 0.0235 0.0314);fill-opacity:1;"/>
</svg>
