<svg width="121" height="42" viewBox="0 0 121 42" fill="none" xmlns="http://www.w3.org/2000/svg">
<path d="M13.0983 41.9786C11.5971 41.5848 10.0745 41.2651 8.60194 40.7854C1.80854 38.5756 -0.981733 33.4235 0.679087 26.4672C2.1469 20.3223 5.27077 15.0246 8.95936 10.0085C11.1396 7.04221 13.5677 4.28119 16.2674 1.76596C16.5748 1.4796 16.8989 1.21233 17.2587 0.9021C17.4732 1.48676 17.0919 1.75165 16.918 2.07619C15.1618 5.36699 13.7941 8.76994 13.4676 12.5428C12.9196 18.8428 17.1419 23.742 23.4778 24.2407C28.1648 24.6106 32.5778 23.3864 36.9979 22.2028C64.2621 14.9053 91.6954 8.28551 119.1 1.54403C119.398 1.47005 119.689 1.38653 120.225 1.57983C118.526 2.28142 117.015 2.9138 115.497 3.53426C87.3039 15.0413 59.1104 26.5507 30.9098 38.0435C26.7399 39.7426 22.5009 41.2507 17.9902 41.802C17.9402 41.8091 17.8997 41.9141 17.8568 41.9762H13.1031L13.0983 41.9786Z" fill="black" style="fill:black;fill-opacity:1;"/>
</svg>
